<svg version="1.1" id="Layer_1" xmlns="http://www.w3.org/2000/svg" xmlns:xlink="http://www.w3.org/1999/xlink" x="0px" y="0px"
	 width="100%" viewBox="0 0 512 512" enable-background="new 0 0 512 512" xml:space="preserve">
<path fill="#21272A" opacity="1.000000" stroke="none" 
	d="
M331.000000,513.000000 
	C220.693466,513.000000 110.886925,513.000000 1.040193,513.000000 
	C1.040193,342.401764 1.040193,171.803528 1.040193,1.102647 
	C171.556549,1.102647 342.113159,1.102647 512.834900,1.102647 
	C512.834900,171.666534 512.834900,342.333252 512.834900,513.000000 
	C452.470184,513.000000 391.985077,513.000000 331.000000,513.000000 
M351.151764,334.731018 
	C376.191620,276.090302 401.315857,217.485413 426.225067,158.789246 
	C434.815308,138.547165 422.600433,119.781822 400.540436,119.788635 
	C366.391724,119.799187 332.243805,120.571465 298.094299,120.882767 
	C289.196350,120.963882 282.396820,125.040886 276.972717,131.498871 
	C271.055267,138.544205 269.693146,146.704330 273.006012,155.398407 
	C277.102325,166.148483 287.701385,172.738785 300.240845,172.760376 
	C319.229309,172.793060 338.217651,172.959717 357.205780,173.104218 
	C358.586975,173.114716 359.966003,173.406891 361.863312,173.628525 
	C342.422882,218.736465 323.259888,263.200714 303.878510,308.171661 
	C293.943878,285.025330 284.458405,262.652344 274.752014,240.375656 
	C260.651581,208.014343 246.510727,175.669220 232.088181,143.451019 
	C229.546707,137.773666 226.402206,131.870178 222.035141,127.609726 
	C213.022949,118.817528 199.264633,118.748482 188.948029,126.189590 
	C179.682190,132.872803 176.282898,146.391220 181.266388,158.229263 
	C194.121002,188.764771 206.886017,219.341873 220.142410,249.703461 
	C238.793716,292.421204 257.816223,334.977295 276.815521,377.542023 
	C278.419159,381.134705 280.599976,384.686981 283.271851,387.549286 
	C297.210846,402.481506 320.187805,398.714874 329.889008,379.670471 
	C337.293091,365.135529 343.910675,350.199921 351.151764,334.731018 
M184.398102,247.051285 
	C180.350098,237.730545 176.378677,228.375641 172.239761,219.095444 
	C159.833023,191.277435 147.479767,163.434448 134.850174,135.717590 
	C130.387314,125.923401 119.923058,120.422958 109.529938,121.517685 
	C97.978035,122.734467 90.010422,129.515259 86.796806,140.299362 
	C84.092659,149.373810 87.354767,157.364716 90.755676,165.341415 
	C109.040825,208.228638 127.160339,251.188904 145.811356,293.916901 
	C158.728348,323.508728 172.267548,352.832794 185.836212,382.134094 
	C190.271439,391.711914 198.724258,396.531006 209.028122,397.003723 
	C228.113541,397.879272 240.081833,377.698486 232.059006,358.914856 
	C216.238480,321.874878 200.508789,284.796112 184.398102,247.051285 
z"/>
<path fill="#FDFDFD" opacity="1.000000" stroke="none" 
	d="
M351.014954,335.086792 
	C343.910675,350.199921 337.293091,365.135529 329.889008,379.670471 
	C320.187805,398.714874 297.210846,402.481506 283.271851,387.549286 
	C280.599976,384.686981 278.419159,381.134705 276.815521,377.542023 
	C257.816223,334.977295 238.793716,292.421204 220.142410,249.703461 
	C206.886017,219.341873 194.121002,188.764771 181.266388,158.229263 
	C176.282898,146.391220 179.682190,132.872803 188.948029,126.189590 
	C199.264633,118.748482 213.022949,118.817528 222.035141,127.609726 
	C226.402206,131.870178 229.546707,137.773666 232.088181,143.451019 
	C246.510727,175.669220 260.651581,208.014343 274.752014,240.375656 
	C284.458405,262.652344 293.943878,285.025330 303.878510,308.171661 
	C323.259888,263.200714 342.422882,218.736465 361.863312,173.628525 
	C359.966003,173.406891 358.586975,173.114716 357.205780,173.104218 
	C338.217651,172.959717 319.229309,172.793060 300.240845,172.760376 
	C287.701385,172.738785 277.102325,166.148483 273.006012,155.398407 
	C269.693146,146.704330 271.055267,138.544205 276.972717,131.498871 
	C282.396820,125.040886 289.196350,120.963882 298.094299,120.882767 
	C332.243805,120.571465 366.391724,119.799187 400.540436,119.788635 
	C422.600433,119.781822 434.815308,138.547165 426.225067,158.789246 
	C401.315857,217.485413 376.191620,276.090302 351.014954,335.086792 
z"/>
<path fill="#FDFDFD" opacity="1.000000" stroke="none" 
	d="
M184.569824,247.392334 
	C200.508789,284.796112 216.238480,321.874878 232.059006,358.914856 
	C240.081833,377.698486 228.113541,397.879272 209.028122,397.003723 
	C198.724258,396.531006 190.271439,391.711914 185.836212,382.134094 
	C172.267548,352.832794 158.728348,323.508728 145.811356,293.916901 
	C127.160339,251.188904 109.040825,208.228638 90.755676,165.341415 
	C87.354767,157.364716 84.092659,149.373810 86.796806,140.299362 
	C90.010422,129.515259 97.978035,122.734467 109.529938,121.517685 
	C119.923058,120.422958 130.387314,125.923401 134.850174,135.717590 
	C147.479767,163.434448 159.833023,191.277435 172.239761,219.095444 
	C176.378677,228.375641 180.350098,237.730545 184.569824,247.392334 
z"/>
</svg>