<svg version="1.1" id="Layer_1" xmlns="http://www.w3.org/2000/svg" xmlns:xlink="http://www.w3.org/1999/xlink" x="0px" y="0px"
	 width="100%" viewBox="0 0 944 944" enable-background="new 0 0 944 944" xml:space="preserve">
<path fill="#000000" opacity="1.000000" stroke="none" 
	d="
M522.000000,945.000000 
	C348.000000,945.000000 174.500000,945.000000 1.000000,945.000000 
	C1.000000,630.333313 1.000000,315.666656 1.000000,1.000000 
	C315.666656,1.000000 630.333313,1.000000 945.000000,1.000000 
	C945.000000,315.666656 945.000000,630.333313 945.000000,945.000000 
	C804.166687,945.000000 663.333313,945.000000 522.000000,945.000000 
M673.033691,652.638855 
	C673.681213,651.512756 674.445496,650.437256 674.958618,649.252869 
	C682.313904,632.274963 689.612732,615.272583 696.974915,598.297668 
	C700.599976,589.939392 704.428162,581.668274 707.987122,573.282410 
	C715.245117,556.181030 722.353760,539.016296 729.580688,521.901611 
	C734.504700,510.240631 739.483337,498.602264 744.514771,486.987244 
	C748.957031,476.732300 753.603760,466.565216 757.986572,456.285309 
	C765.394226,438.910461 772.684570,421.485474 779.986328,404.065674 
	C785.114807,391.830597 790.104370,379.536804 795.294739,367.328217 
	C800.788635,354.405487 806.424683,341.542969 812.040222,328.672333 
	C816.528809,318.384827 821.195984,308.173798 825.570740,297.838562 
	C830.057312,287.239105 833.647644,276.211365 838.780457,265.946198 
	C845.856262,251.795135 849.124695,237.291382 845.923767,221.733688 
	C843.862793,211.716324 839.991638,202.131454 832.919983,194.699356 
	C825.577209,186.982224 816.692810,181.242966 805.874634,178.871643 
	C799.215942,177.412064 792.855286,173.746384 786.204773,173.275803 
	C773.296875,172.362473 760.279053,173.001846 747.306763,173.000351 
	C733.372925,172.998764 719.439087,173.000000 705.505249,173.000000 
	C691.560791,173.000000 677.616150,172.950974 663.672058,173.020920 
	C656.804688,173.055359 649.938843,173.395660 643.071411,173.435699 
	C638.199951,173.464111 633.316406,172.962906 628.456726,173.158066 
	C620.357178,173.483368 612.275757,174.238846 604.179932,174.691040 
	C599.825195,174.934280 595.447205,174.782196 591.095581,175.057831 
	C582.953186,175.573578 574.831909,176.518066 566.684326,176.833038 
	C555.272278,177.274216 544.248657,177.164993 534.102844,184.729965 
	C523.662476,192.514496 513.494202,199.951645 508.211395,212.364655 
	C504.331512,221.481247 502.215149,230.912781 504.035828,240.724945 
	C505.100464,246.462708 506.853577,252.178345 509.099915,257.569366 
	C513.870972,269.019501 523.125671,277.100647 533.199219,283.113983 
	C540.637329,287.554138 550.056885,290.052643 558.783569,290.652283 
	C574.085327,291.703674 589.532837,290.645325 604.919067,290.450104 
	C610.432922,290.380157 615.959045,289.965912 621.456055,290.219269 
	C628.461548,290.542053 635.432861,291.687134 642.437622,291.924316 
	C651.569885,292.233612 660.720520,292.000000 669.863281,292.000000 
	C676.696350,292.000000 683.529907,291.950775 690.362244,292.021759 
	C693.548889,292.054840 696.733154,292.320831 699.600952,292.465240 
	C657.597595,390.020416 615.907837,486.847321 574.282410,583.524780 
	C573.265625,581.037231 572.052856,578.294006 571.014954,575.486145 
	C568.519165,568.734558 566.383240,561.835938 563.598877,555.208008 
	C558.280884,542.548706 552.546204,530.065247 547.107239,517.455750 
	C541.402100,504.229126 535.880005,490.923584 530.206299,477.683228 
	C523.903687,462.975128 517.522522,448.300751 511.171570,433.613403 
	C501.062134,410.234283 490.958282,386.852753 480.835480,363.479431 
	C469.886230,338.197937 458.972748,312.900757 447.922577,287.663422 
	C444.839874,280.622894 441.285950,273.790009 438.022308,266.827148 
	C429.127991,247.851517 420.340973,228.825165 411.354248,209.893524 
	C409.166962,205.285660 407.195374,200.115707 403.670074,196.709656 
	C398.285278,191.506943 392.060211,186.798050 385.429047,183.343933 
	C373.677765,177.222778 361.246826,175.503647 347.851776,178.759689 
	C335.669342,181.720978 324.960876,186.969513 316.828339,196.082001 
	C311.615601,201.922852 307.796753,209.041351 305.739319,217.195450 
	C302.631561,229.512527 301.339966,241.529114 305.984985,253.547333 
	C311.395630,267.546295 317.011444,281.471344 322.827820,295.306732 
	C329.522766,311.231842 336.599304,326.996033 343.390991,342.881104 
	C350.674194,359.915741 357.822052,377.008270 365.022919,394.078094 
	C369.502777,404.697662 373.875031,415.363770 378.466675,425.934692 
	C386.239960,443.830139 394.302643,461.601074 401.957336,479.546448 
	C409.685028,497.662994 416.921417,515.988953 424.631470,534.113220 
	C435.343597,559.294739 446.266754,584.386719 457.165039,609.488586 
	C460.339691,616.800720 463.776947,623.998474 467.024139,631.279724 
	C471.712128,641.791870 476.252136,652.370728 481.012207,662.849792 
	C485.575165,672.894897 490.153931,682.940491 495.053772,692.823242 
	C503.914368,710.694641 511.924713,729.113770 522.292480,746.080688 
	C535.984985,768.488708 556.522095,779.392822 583.452148,774.958130 
	C605.103149,771.392883 620.879150,759.325256 630.917358,740.059448 
	C640.275391,722.099121 649.117737,703.866638 657.990234,685.658081 
	C663.179871,675.007751 667.984192,664.169678 673.033691,652.638855 
M373.037537,586.402100 
	C371.694427,583.167053 370.255127,579.968079 369.028198,576.689575 
	C366.450653,569.802063 364.243408,562.765015 361.416901,555.984131 
	C356.195435,543.457581 350.585846,531.093445 345.234436,518.620239 
	C339.430450,505.092102 333.777069,491.499359 327.982697,477.967072 
	C322.564453,465.313202 317.041718,452.704071 311.575256,440.070831 
	C300.126312,413.611725 288.704132,387.140991 277.233276,360.691376 
	C266.781158,336.590729 256.386963,312.464050 245.760162,288.440460 
	C239.094742,273.372192 232.115692,258.441040 225.147369,243.508987 
	C220.208191,232.925079 215.336517,222.292465 209.893204,211.967041 
	C206.195145,204.952255 202.954727,197.411804 196.082657,192.604797 
	C193.340149,190.686462 190.345139,189.116058 187.679504,187.103287 
	C179.347626,180.812057 169.664856,178.085007 159.601013,178.240723 
	C152.118683,178.356537 144.483261,180.042160 137.254318,182.175156 
	C128.156540,184.859528 120.130951,190.352127 114.385643,197.678040 
	C109.772499,203.560333 106.760475,210.945816 104.108261,218.063080 
	C99.604630,230.148605 99.350365,242.641266 104.029701,254.793839 
	C109.421364,268.796356 115.218430,282.645050 120.976295,296.503693 
	C126.752716,310.406982 132.688492,324.244110 138.571533,338.102997 
	C143.992874,350.874207 149.438492,363.635101 154.870483,376.401764 
	C160.565216,389.785889 166.227081,403.184082 171.957489,416.552887 
	C177.703125,429.957184 183.466568,443.354248 189.314758,456.713989 
	C193.799377,466.958771 198.579224,477.076141 202.958084,487.364990 
	C210.042175,504.010223 216.837875,520.778015 223.881012,537.440918 
	C230.172379,552.325195 236.653717,567.129211 243.013260,581.984802 
	C247.611801,592.726868 251.981552,603.570251 256.762909,614.229614 
	C260.875916,623.398926 265.654846,632.270691 269.732483,641.454651 
	C276.350311,656.359802 282.251617,671.592346 289.162231,686.355835 
	C297.066559,703.242310 305.648468,719.815613 314.120605,736.430786 
	C319.048462,746.095215 323.601044,755.803772 332.932220,762.689270 
	C347.255310,773.258179 362.264893,779.255066 380.419159,776.085510 
	C408.458862,771.190002 422.988831,747.133484 424.825165,723.165344 
	C425.899567,709.141907 420.418274,696.335266 414.459656,683.810059 
	C408.608429,671.510498 403.236725,658.977844 397.855652,646.461060 
	C393.192505,635.614319 388.783142,624.657898 384.313568,613.728699 
	C380.679657,604.842957 377.122803,595.925659 373.037537,586.402100 
z"/>
<path fill="#FFFFFF" opacity="1.000000" stroke="none" 
	d="
M672.997742,653.027466 
	C667.984192,664.169678 663.179871,675.007751 657.990234,685.658081 
	C649.117737,703.866638 640.275391,722.099121 630.917358,740.059448 
	C620.879150,759.325256 605.103149,771.392883 583.452148,774.958130 
	C556.522095,779.392822 535.984985,768.488708 522.292480,746.080688 
	C511.924713,729.113770 503.914368,710.694641 495.053772,692.823242 
	C490.153931,682.940491 485.575165,672.894897 481.012207,662.849792 
	C476.252136,652.370728 471.712128,641.791870 467.024139,631.279724 
	C463.776947,623.998474 460.339691,616.800720 457.165039,609.488586 
	C446.266754,584.386719 435.343597,559.294739 424.631470,534.113220 
	C416.921417,515.988953 409.685028,497.662994 401.957336,479.546448 
	C394.302643,461.601074 386.239960,443.830139 378.466675,425.934692 
	C373.875031,415.363770 369.502777,404.697662 365.022919,394.078094 
	C357.822052,377.008270 350.674194,359.915741 343.390991,342.881104 
	C336.599304,326.996033 329.522766,311.231842 322.827820,295.306732 
	C317.011444,281.471344 311.395630,267.546295 305.984985,253.547333 
	C301.339966,241.529114 302.631561,229.512527 305.739319,217.195450 
	C307.796753,209.041351 311.615601,201.922852 316.828339,196.082001 
	C324.960876,186.969513 335.669342,181.720978 347.851776,178.759689 
	C361.246826,175.503647 373.677765,177.222778 385.429047,183.343933 
	C392.060211,186.798050 398.285278,191.506943 403.670074,196.709656 
	C407.195374,200.115707 409.166962,205.285660 411.354248,209.893524 
	C420.340973,228.825165 429.127991,247.851517 438.022308,266.827148 
	C441.285950,273.790009 444.839874,280.622894 447.922577,287.663422 
	C458.972748,312.900757 469.886230,338.197937 480.835480,363.479431 
	C490.958282,386.852753 501.062134,410.234283 511.171570,433.613403 
	C517.522522,448.300751 523.903687,462.975128 530.206299,477.683228 
	C535.880005,490.923584 541.402100,504.229126 547.107239,517.455750 
	C552.546204,530.065247 558.280884,542.548706 563.598877,555.208008 
	C566.383240,561.835938 568.519165,568.734558 571.014954,575.486145 
	C572.052856,578.294006 573.265625,581.037231 574.282410,583.524780 
	C615.907837,486.847321 657.597595,390.020416 699.600952,292.465240 
	C696.733154,292.320831 693.548889,292.054840 690.362244,292.021759 
	C683.529907,291.950775 676.696350,292.000000 669.863281,292.000000 
	C660.720520,292.000000 651.569885,292.233612 642.437622,291.924316 
	C635.432861,291.687134 628.461548,290.542053 621.456055,290.219269 
	C615.959045,289.965912 610.432922,290.380157 604.919067,290.450104 
	C589.532837,290.645325 574.085327,291.703674 558.783569,290.652283 
	C550.056885,290.052643 540.637329,287.554138 533.199219,283.113983 
	C523.125671,277.100647 513.870972,269.019501 509.099915,257.569366 
	C506.853577,252.178345 505.100464,246.462708 504.035828,240.724945 
	C502.215149,230.912781 504.331512,221.481247 508.211395,212.364655 
	C513.494202,199.951645 523.662476,192.514496 534.102844,184.729965 
	C544.248657,177.164993 555.272278,177.274216 566.684326,176.833038 
	C574.831909,176.518066 582.953186,175.573578 591.095581,175.057831 
	C595.447205,174.782196 599.825195,174.934280 604.179932,174.691040 
	C612.275757,174.238846 620.357178,173.483368 628.456726,173.158066 
	C633.316406,172.962906 638.199951,173.464111 643.071411,173.435699 
	C649.938843,173.395660 656.804688,173.055359 663.672058,173.020920 
	C677.616150,172.950974 691.560791,173.000000 705.505249,173.000000 
	C719.439087,173.000000 733.372925,172.998764 747.306763,173.000351 
	C760.279053,173.001846 773.296875,172.362473 786.204773,173.275803 
	C792.855286,173.746384 799.215942,177.412064 805.874634,178.871643 
	C816.692810,181.242966 825.577209,186.982224 832.919983,194.699356 
	C839.991638,202.131454 843.862793,211.716324 845.923767,221.733688 
	C849.124695,237.291382 845.856262,251.795135 838.780457,265.946198 
	C833.647644,276.211365 830.057312,287.239105 825.570740,297.838562 
	C821.195984,308.173798 816.528809,318.384827 812.040222,328.672333 
	C806.424683,341.542969 800.788635,354.405487 795.294739,367.328217 
	C790.104370,379.536804 785.114807,391.830597 779.986328,404.065674 
	C772.684570,421.485474 765.394226,438.910461 757.986572,456.285309 
	C753.603760,466.565216 748.957031,476.732300 744.514771,486.987244 
	C739.483337,498.602264 734.504700,510.240631 729.580688,521.901611 
	C722.353760,539.016296 715.245117,556.181030 707.987122,573.282410 
	C704.428162,581.668274 700.599976,589.939392 696.974915,598.297668 
	C689.612732,615.272583 682.313904,632.274963 674.958618,649.252869 
	C674.445496,650.437256 673.681213,651.512756 672.997742,653.027466 
z"/>
<path fill="#FFFFFF" opacity="1.000000" stroke="none" 
	d="
M373.284668,586.712280 
	C377.122803,595.925659 380.679657,604.842957 384.313568,613.728699 
	C388.783142,624.657898 393.192505,635.614319 397.855652,646.461060 
	C403.236725,658.977844 408.608429,671.510498 414.459656,683.810059 
	C420.418274,696.335266 425.899567,709.141907 424.825165,723.165344 
	C422.988831,747.133484 408.458862,771.190002 380.419159,776.085510 
	C362.264893,779.255066 347.255310,773.258179 332.932220,762.689270 
	C323.601044,755.803772 319.048462,746.095215 314.120605,736.430786 
	C305.648468,719.815613 297.066559,703.242310 289.162231,686.355835 
	C282.251617,671.592346 276.350311,656.359802 269.732483,641.454651 
	C265.654846,632.270691 260.875916,623.398926 256.762909,614.229614 
	C251.981552,603.570251 247.611801,592.726868 243.013260,581.984802 
	C236.653717,567.129211 230.172379,552.325195 223.881012,537.440918 
	C216.837875,520.778015 210.042175,504.010223 202.958084,487.364990 
	C198.579224,477.076141 193.799377,466.958771 189.314758,456.713989 
	C183.466568,443.354248 177.703125,429.957184 171.957489,416.552887 
	C166.227081,403.184082 160.565216,389.785889 154.870483,376.401764 
	C149.438492,363.635101 143.992874,350.874207 138.571533,338.102997 
	C132.688492,324.244110 126.752716,310.406982 120.976295,296.503693 
	C115.218430,282.645050 109.421364,268.796356 104.029701,254.793839 
	C99.350365,242.641266 99.604630,230.148605 104.108261,218.063080 
	C106.760475,210.945816 109.772499,203.560333 114.385643,197.678040 
	C120.130951,190.352127 128.156540,184.859528 137.254318,182.175156 
	C144.483261,180.042160 152.118683,178.356537 159.601013,178.240723 
	C169.664856,178.085007 179.347626,180.812057 187.679504,187.103287 
	C190.345139,189.116058 193.340149,190.686462 196.082657,192.604797 
	C202.954727,197.411804 206.195145,204.952255 209.893204,211.967041 
	C215.336517,222.292465 220.208191,232.925079 225.147369,243.508987 
	C232.115692,258.441040 239.094742,273.372192 245.760162,288.440460 
	C256.386963,312.464050 266.781158,336.590729 277.233276,360.691376 
	C288.704132,387.140991 300.126312,413.611725 311.575256,440.070831 
	C317.041718,452.704071 322.564453,465.313202 327.982697,477.967072 
	C333.777069,491.499359 339.430450,505.092102 345.234436,518.620239 
	C350.585846,531.093445 356.195435,543.457581 361.416901,555.984131 
	C364.243408,562.765015 366.450653,569.802063 369.028198,576.689575 
	C370.255127,579.968079 371.694427,583.167053 373.284668,586.712280 
z"/>
</svg>